# xmcd
#
# Track frame offsets:
#	150
#	18208
#	27403
#	38568
#	55276
#	71533
#	85859
#	96819
#	112251
#	129188
#	148554
#	156468
#	172761
#	188498
#	200627
#	208614
#	224738
#	237154
#	247032
#
# Disc length: 3627 seconds
#
# Revision: 2
# Processed by: cddbd v1.5.2PL0 Copyright (c) Steve Scherf et al.
# Submitted via: audiograbber 1.83.01
#
DISCID=0d0e2913
DTITLE=Wiglaf Droste und das Spardosen-Terzett - Das Konzert
DYEAR=2004
DGENRE=Jazz
TTITLE0=Gentle on my mind
TTITLE1=Das böse Wort mit B
TTITLE2=Wieso heißen plötzlich alle Oliver?
TTITLE3=Entscheidungsqualen
TTITLE4=Mehr geht nicht
TTITLE5=Frage nicht, ob Liebe lohnet
TTITLE6=Oh Vorsicht der Frauen
TTITLE7=Es geht vorbei
TTITLE8=No te quiero nunca mas
TTITLE9=Müde
TTITLE10=Du kleine Löterin
TTITLE11=Musse pfeiffe inne Wind
TTITLE12=Vogelheim
TTITLE13=Sag warum
TTITLE14=Back for good
TTITLE15=I'm so lonesome
TTITLE16=High riding woman
TTITLE17=Eine letzte Ansage
TTITLE18=PMS - Ein Schauprozess
EXTD=
EXTT0=
EXTT1=
EXTT2=
EXTT3=
EXTT4=
EXTT5=
EXTT6=
EXTT7=
EXTT8=
EXTT9=
EXTT10=
EXTT11=
EXTT12=
EXTT13=
EXTT14=
EXTT15=
EXTT16=
EXTT17=
EXTT18=
PLAYORDER=
